<?xml version="1.0" encoding="UTF-8" standalone="no"?>
<!-- Created with Inkscape (http://www.inkscape.org/) -->

<svg
   xmlns:dc="http://purl.org/dc/elements/1.1/"
   xmlns:cc="http://creativecommons.org/ns#"
   xmlns:rdf="http://www.w3.org/1999/02/22-rdf-syntax-ns#"
   xmlns:svg="http://www.w3.org/2000/svg"
   xmlns="http://www.w3.org/2000/svg"
   xmlns:sodipodi="http://sodipodi.sourceforge.net/DTD/sodipodi-0.dtd"
   xmlns:inkscape="http://www.inkscape.org/namespaces/inkscape"
   id="svg2985"
   version="1.1"
   inkscape:version="0.48.4 r9939"
   width="233.19949"
   height="109.05888"
   xml:space="preserve"
   sodipodi:docname="deltares_merk.svg"><metadata
     id="metadata2991"><rdf:RDF><cc:Work
         rdf:about=""><dc:format>image/svg+xml</dc:format><dc:type
           rdf:resource="http://purl.org/dc/dcmitype/StillImage" /><dc:title></dc:title></cc:Work></rdf:RDF></metadata><defs
     id="defs2989"><clipPath
       clipPathUnits="userSpaceOnUse"
       id="clipPath3001"><path
         d="M 0,1397.62 0,0 l 2394.58,0 0,1397.62"
         id="path3003"
         inkscape:connector-curvature="0" /></clipPath></defs><sodipodi:namedview
     pagecolor="#ffffff"
     bordercolor="#666666"
     borderopacity="1"
     objecttolerance="10"
     gridtolerance="10"
     guidetolerance="10"
     inkscape:pageopacity="0"
     inkscape:pageshadow="2"
     inkscape:window-width="1366"
     inkscape:window-height="716"
     id="namedview2987"
     showgrid="false"
     inkscape:zoom="2"
     inkscape:cx="132.37949"
     inkscape:cy="24.149164"
     inkscape:window-x="-8"
     inkscape:window-y="-8"
     inkscape:window-maximized="1"
     inkscape:current-layer="g2995"
     fit-margin-top="1"
     fit-margin-left="1"
     fit-margin-right="1"
     fit-margin-bottom="1" /><g
     id="g2993"
     inkscape:groupmode="layer"
     inkscape:label="deltares_merk_pantone"
     transform="matrix(1.25,0,0,-1.25,-33.248,141.93)"><g
       id="g2995"
       transform="scale(0.1,0.1)"><g
         id="g2997"><g
           id="g2999"
           clip-path="url(#clipPath3001)"><path
             d="m 273.984,624.793 0,65.086 50.188,0 0,-9.774 -39.082,0 0,-27.296 35.273,0 0,-9.903 -35.273,0 0,-19.062 c 0,-9.297 4.648,-13.563 12.031,-13.563 l 27.051,0 0,-9.777 -26.086,0 c -15.75,0 -24.102,7.512 -24.102,24.289"
             style="fill:#008ac2;fill-opacity:1;fill-rule:nonzero;stroke:none"
             id="path3005"
             inkscape:connector-curvature="0" /><path
             d="m 343.605,665.789 10.235,0 0,-12.031 4.648,4.531 c 4.649,4.637 10.242,8.445 18.594,8.445 10.254,0 17.539,-5.593 17.539,-22.39 l 0,-43.84 -10.019,0 0,43.84 c 0,10.234 -4.786,13.105 -10.266,13.105 -6.551,0 -13.106,-6.554 -16.785,-10.246 l -3.711,-3.711 0,-42.988 -10.235,0 0,65.285"
             style="fill:#008ac2;fill-opacity:1;fill-rule:nonzero;stroke:none"
             id="path3007"
             inkscape:connector-curvature="0" /><path
             d="m 413.203,622.047 0,10.266 c 0,20.496 16.692,33.476 34.445,33.476 l 17.637,0 0,-65.285 -10.254,0 0,12.129 -4.648,-4.617 c -4.649,-4.778 -10.254,-8.457 -18.594,-8.457 -10.234,0 -18.586,6.55 -18.586,22.488 z m 38.137,-2.84 3.691,3.68 0,33.613 -7.383,0 c -14.062,0 -24.191,-9.297 -24.191,-24.187 l 0,-10.266 c 0,-10.352 4.641,-13.203 10.129,-13.203 6.543,0 14.062,6.652 17.754,10.363"
             style="fill:#008ac2;fill-opacity:1;fill-rule:nonzero;stroke:none"
             id="path3009"
             inkscape:connector-curvature="0" /><path
             d="m 488.527,689.879 10.243,0 0,-36.121 4.64,4.531 c 4.668,4.754 10.145,8.445 18.496,8.445 10.235,0 18.574,-6.55 18.574,-22.39 l 0,-10.246 c 0,-20.496 -16.671,-33.594 -34.433,-33.594 l -17.52,0 0,89.375 z m 17.52,-80.086 c 13.945,0 24.199,9.414 24.199,24.305 l 0,10.246 c 0,10.234 -4.66,13.105 -10.254,13.105 -6.437,0 -13.945,-6.554 -17.539,-10.246 l -3.683,-3.711 0,-33.699 7.277,0"
             style="fill:#008ac2;fill-opacity:1;fill-rule:nonzero;stroke:none"
             id="path3011"
             inkscape:connector-curvature="0" /><path
             d="m 559.551,680.582 -11.199,0 0,9.297 21.445,0 0,-89.375 -10.246,0 0,80.078"
             style="fill:#008ac2;fill-opacity:1;fill-rule:nonzero;stroke:none"
             id="path3013"
             inkscape:connector-curvature="0" /><path
             d="m 594.719,656.5 -11.086,0 0,9.289 21.32,0 0,-65.285 -10.234,0 0,55.996 z m 0,33.379 10.234,0 0,-11.199 -10.234,0 0,11.199"
             style="fill:#008ac2;fill-opacity:1;fill-rule:nonzero;stroke:none"
             id="path3015"
             inkscape:connector-curvature="0" /><path
             d="m 628.086,665.789 10.246,0 0,-12.031 4.648,4.531 c 4.649,4.637 10.243,8.445 18.594,8.445 10.254,0 17.625,-5.593 17.625,-22.39 l 0,-43.84 -10.105,0 0,43.84 c 0,10.234 -4.785,13.105 -10.254,13.105 -6.563,0 -13.117,-6.554 -16.809,-10.246 l -3.699,-3.711 0,-42.988 -10.246,0 0,65.285"
             style="fill:#008ac2;fill-opacity:1;fill-rule:nonzero;stroke:none"
             id="path3017"
             inkscape:connector-curvature="0" /><path
             d="m 703.281,587.516 11.203,0 c 17.657,0 25.039,5.48 25.039,20.5 l 0,2.625 -0.937,-0.36 c -5.137,-2.511 -10.996,-6.086 -20.41,-6.086 -11.074,0 -20.371,7.5 -20.371,23.821 l 0,4.297 c 0,21.316 14.902,33.476 32.429,33.476 l 19.543,0 0,-56.945 c 0,-22.285 -12.988,-30.75 -35.293,-30.75 l -11.203,0 0,9.422 z m 34.465,30.722 1.777,0.84 0,37.422 -9.289,0 c -13.847,0 -22.195,-9.297 -22.195,-24.187 l 0,-4.297 c 0,-10.137 4.668,-14.414 12.039,-14.414 6.672,0 12.539,2.148 17.668,4.636"
             style="fill:#008ac2;fill-opacity:1;fill-rule:nonzero;stroke:none"
             id="path3019"
             inkscape:connector-curvature="0" /><path
             d="m 805.539,689.879 26.465,0 c 26.941,0 39.453,-12.52 39.453,-37.07 l 0,-13.125 c 0,-23.231 -10.605,-39.18 -37.559,-39.18 l -28.359,0 0,89.375 z m 28.359,-79.598 c 18.965,0 26.485,9.871 26.485,29.403 l 0,13.125 c 0,19.433 -9.778,27.296 -28.379,27.296 l -15.254,0 0,-69.824 17.148,0"
             style="fill:#008ac2;fill-opacity:1;fill-rule:nonzero;stroke:none"
             id="path3021"
             inkscape:connector-curvature="0" /><path
             d="m 886.828,625.758 0,12.98 c 0,17.762 12.031,27.996 27.879,27.996 13,0 22.297,-5.593 22.297,-18.711 0,-11.543 -7.402,-18.582 -20.383,-18.582 l -19.551,0 0,-3.683 c 0,-12.156 7.395,-16.914 17.637,-16.914 7.395,0 14.895,2.851 17.637,4.269 l 0.969,0 0,-9.386 c -2.735,-1.317 -11.211,-4.168 -18.606,-4.168 -15.848,0 -27.879,7.5 -27.879,26.199 z m 26.934,12.16 c 10.254,0 13.105,3.672 13.105,10.105 0,7.043 -4.765,9.426 -12.16,9.426 -11.191,0 -17.637,-5.605 -17.637,-18.711 l 0,-0.82 16.692,0"
             style="fill:#008ac2;fill-opacity:1;fill-rule:nonzero;stroke:none"
             id="path3023"
             inkscape:connector-curvature="0" /><path
             d="m 955.012,680.582 -11.106,0 0,9.297 21.34,0 0,-89.375 -10.234,0 0,80.078"
             style="fill:#008ac2;fill-opacity:1;fill-rule:nonzero;stroke:none"
             id="path3025"
             inkscape:connector-curvature="0" /><path
             d="m 991.105,623.016 0,33.484 -10.246,0 0,9.289 10.246,0 0,14.793 10.255,0 0,-14.793 18.6,0 0,-9.289 -18.6,0 0,-31.707 c 0,-12.031 3.69,-15 13.95,-15 l 6.56,0 0,-9.289 -8.35,0 c -13.95,0 -22.415,6.555 -22.415,22.512"
             style="fill:#008ac2;fill-opacity:1;fill-rule:nonzero;stroke:none"
             id="path3027"
             inkscape:connector-curvature="0" /><path
             d="m 1033.41,622.047 0,10.266 c 0,20.496 16.68,33.476 34.35,33.476 l 17.64,0 0,-65.285 -10.25,0 0,12.129 -4.65,-4.617 c -4.66,-4.778 -10.14,-8.457 -18.48,-8.457 -10.27,0 -18.61,6.55 -18.61,22.488 z m 38.04,-2.84 3.7,3.68 0,33.613 -7.39,0 c -13.98,0 -24.09,-9.297 -24.09,-24.187 l 0,-10.266 c 0,-10.352 4.65,-13.203 10.11,-13.203 6.58,0 13.98,6.652 17.67,10.363"
             style="fill:#008ac2;fill-opacity:1;fill-rule:nonzero;stroke:none"
             id="path3029"
             inkscape:connector-curvature="0" /><path
             d="m 1141.17,624.793 0,65.086 11.19,0 0,-66.035 c 0,-9.297 4.65,-13.563 12.05,-13.563 l 25.04,0 0,-9.777 -24.09,0 c -15.85,0 -24.19,8.34 -24.19,24.289"
             style="fill:#008ac2;fill-opacity:1;fill-rule:nonzero;stroke:none"
             id="path3031"
             inkscape:connector-curvature="0" /><path
             d="m 1205.18,656.5 -11.08,0 0,9.289 21.32,0 0,-65.285 -10.24,0 0,55.996 z m 0,33.379 10.24,0 0,-11.199 -10.24,0 0,11.199"
             style="fill:#008ac2;fill-opacity:1;fill-rule:nonzero;stroke:none"
             id="path3033"
             inkscape:connector-curvature="0" /><path
             d="m 1241.38,656.5 -10.23,0 0,9.289 10.23,0 0,2.645 c 0,14.062 8.48,21.445 21.45,21.445 l 7.4,0 0,-9.297 -7.4,0 c -8.34,0 -11.21,-3.691 -11.21,-12.148 l 0,-2.645 16.81,0 0,-9.289 -16.81,0 0,-55.996 -10.24,0 0,55.996"
             style="fill:#008ac2;fill-opacity:1;fill-rule:nonzero;stroke:none"
             id="path3035"
             inkscape:connector-curvature="0" /><path
             d="m 1276.29,625.758 0,12.98 c 0,17.762 11.94,27.996 27.81,27.996 12.97,0 22.26,-5.593 22.26,-18.711 0,-11.543 -7.38,-18.582 -20.37,-18.582 l -19.43,0 0,-3.683 c 0,-12.156 7.27,-16.914 17.54,-16.914 7.36,0 14.88,2.851 17.62,4.269 l 0.95,0 0,-9.386 c -2.73,-1.317 -11.21,-4.168 -18.57,-4.168 -15.87,0 -27.81,7.5 -27.81,26.199 z m 26.83,12.16 c 10.26,0 13.13,3.672 13.13,10.105 0,7.043 -4.79,9.426 -12.15,9.426 -11.21,0 -17.54,-5.605 -17.54,-18.711 l 0,-0.82 16.56,0"
             style="fill:#008ac2;fill-opacity:1;fill-rule:nonzero;stroke:none"
             id="path3037"
             inkscape:connector-curvature="0" /><path
             d="M 1724.85,552.605 C 1572.69,498.738 1568.33,398.191 1653.38,391.5 c 106.33,-8.359 53.04,-123.762 -114.87,-110.199 l 0,-3.481 c 18.92,-4.468 38.62,-6.851 58.89,-6.851 70.5,0 133.3,26.812 180.5,74.769 79.92,81.211 61.15,119.231 15.02,119.512 -56.82,0.352 13.08,40.09 43.12,61.262 31.4,22.156 23.13,73.672 -111.19,26.093"
             style="fill:#008ac2;fill-opacity:1;fill-rule:nonzero;stroke:none"
             id="path3039"
             inkscape:connector-curvature="0" /><path
             d="m 1136.56,901.199 c 0,0 -20.73,-9.863 -56.62,-9.863 -37.21,0 -55.26,18.309 -55.26,55.449 l 102.57,0 c 13.95,0 22.4,2.449 22.4,15.762 l 0,7.449 c 0,49.064 -25.84,88.954 -83.77,88.954 -59.51,0 -92.989,-45.05 -92.989,-105.946 0,-70.652 35.919,-101.824 100.079,-101.824 40.92,0 63.59,10.457 63.59,10.457 l 0,39.562 z m -111.05,80.196 c 2.72,24.005 17.76,39.585 39.05,39.585 22.34,0 34.03,-14.77 34.03,-39.585 l -73.08,0 z m 162.64,-64.973 c 0,-46.367 14,-65.242 52.21,-65.242 18.34,0 34.18,5.554 34.18,5.554 l 0,37.61 c 0,0 -11.22,-2.492 -17.54,-2.492 -10.89,0 -17.7,5.234 -17.7,25.675 l 0,209.113 -28.81,0 c -14.06,0 -22.34,-2.46 -22.34,-16.14 l 0,-194.078 z M 720.43,855.621 c 0,0 36.601,-4.441 75.312,-4.441 87.852,0 148.41,51.386 148.41,143.886 0,94.674 -52.922,132.374 -136.418,132.374 -23.203,0 -43.652,0 -65.214,-1.1 -13.582,-0.78 -22.09,-2.44 -22.09,-16.13 l 0,-254.589 z m 52.109,227.069 c 8.477,0.81 19.348,1.06 31.387,1.06 61.672,0 84.66,-34.7 84.66,-92.492 0,-64.141 -36.926,-95.852 -87.668,-95.852 -10.664,0 -21.289,0.801 -28.379,1.914 l 0,185.37 z M 1993.33,855.094 c 12.51,-2.274 27.18,-3.914 41.56,-3.914 54.22,0 88.69,26.816 88.69,65.789 0,64.426 -81.68,50.304 -81.68,82.461 0,12.59 9.6,20.47 29.82,20.47 6.51,0 12.76,-0.53 18.24,-0.53 11.94,0 20.08,2.68 20.08,21.52 l 0,14.53 c -12.07,1.88 -24.68,3.53 -36.13,3.53 -56.21,0 -84.57,-29.15 -84.57,-63.884 0,-67.421 80.38,-47.48 80.38,-82.695 0,-13.039 -12.9,-21.582 -32.4,-21.582 -15.19,0 -30.6,2.703 -42.86,5.977 l -1.13,-41.672 z m -327.33,0.527 51.56,0 0,121.418 c 0,27.311 7.31,37.721 26.94,37.721 l 3.09,0 c 14.47,0 22.33,2.42 22.33,15.99 l 0,23.86 -31.14,0 c -57.83,0 -72.78,-35.14 -72.78,-77.915 l 0,-121.074 z m -359.72,60.801 c 0,-46.367 13.41,-65.242 57.91,-65.242 13.57,0 28.26,1.953 41.45,5.554 l 0,39.473 c -7.52,-2.176 -18.43,-3.242 -25.16,-3.242 -17.12,0 -23.38,7.453 -23.38,33.098 l 0,88.697 26.15,0 c 14.01,0 22.39,2.42 22.39,15.99 l 0,23.86 -48.54,0 0,72.03 -28.68,0 c -14.25,0 -22.14,-2.46 -22.14,-16.14 l 0,-194.078 z m 256.7,-19.656 c 0,0 -10.04,-5.43 -32.49,-5.43 -33.66,0 -47.11,21.57 -47.11,59.004 0,49.363 24.81,68.5 54.29,68.5 9.82,0 17.22,-0.84 25.31,-2.73 l 0,-119.344 z m 50.83,150.964 c 0,0 -24.25,11.22 -71.43,11.22 -70.5,0 -112.23,-46.67 -112.23,-114.071 0,-60.867 35.46,-93.699 96.33,-93.699 55.97,0 87.33,15.078 87.33,15.078 l 0,181.472 z m 331.02,-146.531 c 0,0 -20.94,-9.863 -56.7,-9.863 -37.13,0 -55.53,18.309 -55.53,55.449 l 102.84,0 c 13.97,0 22.15,2.449 22.15,15.762 l 0,7.449 c 0,49.064 -25.54,88.954 -83.8,88.954 -59.16,0 -93.02,-45.05 -93.02,-105.946 0,-70.652 36.29,-101.824 100.33,-101.824 40.8,0 63.73,10.457 63.73,10.457 l 0,39.562 z m -111.32,80.196 c 2.81,24.005 18.02,39.585 38.94,39.585 22.71,0 34.39,-14.77 34.39,-39.585 l -73.33,0"
             style="fill:#96b7c5;fill-opacity:1;fill-rule:nonzero;stroke:none"
             id="path3041"
             inkscape:connector-curvature="0" /><path
             d="m 1553.4,790.203 c -56.02,-30.949 -131.97,-138.019 32.74,-112.609 94.27,14.543 67.52,-31.688 -6.14,-90.235 -62.55,-49.746 -97.24,-126.171 -102.5,-160.332 l 4.38,-4.394 c 52.57,113.906 250.51,214.785 353.75,204.582 13.61,22.683 -36.19,27.207 -46.5,28.359 -26.31,2.93 -64.23,-8.203 -35.87,24.629 64.47,74.637 -43.24,71.512 -149.03,49.024 -98.69,-20.969 -82.56,27.371 -47.68,60.976 l -3.15,0"
             style="fill:#96b7c5;fill-opacity:1;fill-rule:nonzero;stroke:none"
             id="path3043"
             inkscape:connector-curvature="0" /></g></g></g></g></svg>