<?xml version="1.0" encoding="UTF-8" standalone="no"?>
<!-- Created with Inkscape (http://www.inkscape.org/) -->

<svg
   xmlns:dc="http://purl.org/dc/elements/1.1/"
   xmlns:cc="http://creativecommons.org/ns#"
   xmlns:rdf="http://www.w3.org/1999/02/22-rdf-syntax-ns#"
   xmlns:svg="http://www.w3.org/2000/svg"
   xmlns="http://www.w3.org/2000/svg"
   xmlns:sodipodi="http://sodipodi.sourceforge.net/DTD/sodipodi-0.dtd"
   xmlns:inkscape="http://www.inkscape.org/namespaces/inkscape"
   width="48.71965"
   height="66.904251"
   id="svg3056"
   version="1.1"
   inkscape:version="0.48.4 r9939"
   sodipodi:docname="deltares_logo.pdf">
  <defs
     id="defs3058" />
  <sodipodi:namedview
     id="base"
     pagecolor="#ffffff"
     bordercolor="#666666"
     borderopacity="1.0"
     inkscape:pageopacity="0.0"
     inkscape:pageshadow="2"
     inkscape:zoom="8"
     inkscape:cx="33.313597"
     inkscape:cy="23.469949"
     inkscape:document-units="px"
     inkscape:current-layer="layer1"
     showgrid="false"
     fit-margin-left="1"
     fit-margin-top="1"
     fit-margin-bottom="1"
     fit-margin-right="1"
     inkscape:window-width="1366"
     inkscape:window-height="716"
     inkscape:window-x="-8"
     inkscape:window-y="-8"
     inkscape:window-maximized="1" />
  <metadata
     id="metadata3061">
    <rdf:RDF>
      <cc:Work
         rdf:about="">
        <dc:format>image/svg+xml</dc:format>
        <dc:type
           rdf:resource="http://purl.org/dc/dcmitype/StillImage" />
        <dc:title></dc:title>
      </cc:Work>
    </rdf:RDF>
  </metadata>
  <g
     inkscape:label="Layer 1"
     inkscape:groupmode="layer"
     id="layer1"
     transform="translate(-335.64018,-498.91006)">
    <path
       inkscape:connector-curvature="0"
       d="m 367.55893,529.60981 c -19.02,6.73337 -19.565,19.30175 -8.93375,20.13812 13.29125,1.04488 6.63,15.47025 -14.35875,13.77488 0,0 -0.20221,-0.0148 -0.22442,0.17872 -0.0222,0.1935 0.22442,0.2564 0.22442,0.2564 2.365,0.5585 4.8275,0.85638 7.36125,0.85638 8.8125,0 16.6625,-3.3515 22.5625,-9.34613 9.99,-10.15137 7.64375,-14.90387 1.8775,-14.939 -7.1025,-0.044 1.635,-5.01125 5.39,-7.65775 3.925,-2.7695 2.89125,-9.209 -13.89875,-3.26162"
       style="fill:#008ac2;fill-opacity:1;fill-rule:nonzero;stroke:none"
       id="path3039"
       sodipodi:nodetypes="ccczcscccc" />
    <path
       inkscape:connector-curvature="0"
       d="m 346.12768,499.91006 c -7.0025,3.86862 -16.49625,17.25237 4.0925,14.07612 11.78375,-1.81787 8.44,3.961 -0.7675,11.27938 -7.81875,6.21825 -12.155,15.77137 -12.8125,20.0415 0,0 -0.087,0.55439 0.17218,0.67306 0.25915,0.11867 0.37532,-0.12381 0.37532,-0.12381 6.57125,-14.23825 31.31375,-26.84813 44.21875,-25.57275 1.70125,-2.83538 -4.52375,-3.40088 -5.8125,-3.54488 -3.28875,-0.36625 -8.02875,1.02538 -4.48375,-3.07862 8.05875,-9.32963 -5.405,-8.939 -18.62875,-6.128 -12.33625,2.62112 -10.32,-3.42138 -5.96,-7.622 l -0.39375,0"
       style="fill:#96b7c5;fill-opacity:1;fill-rule:nonzero;stroke:none"
       id="path3043"
       sodipodi:nodetypes="cscczcccsccc" />
  </g>
</svg>
