<?xml version="1.0" encoding="UTF-8" standalone="no"?>
<!-- Created with Inkscape (http://www.inkscape.org/) -->

<svg
   xmlns:dc="http://purl.org/dc/elements/1.1/"
   xmlns:cc="http://creativecommons.org/ns#"
   xmlns:rdf="http://www.w3.org/1999/02/22-rdf-syntax-ns#"
   xmlns:svg="http://www.w3.org/2000/svg"
   xmlns="http://www.w3.org/2000/svg"
   xmlns:sodipodi="http://sodipodi.sourceforge.net/DTD/sodipodi-0.dtd"
   xmlns:inkscape="http://www.inkscape.org/namespaces/inkscape"
   width="177.39375"
   height="36.532501"
   id="svg3026"
   version="1.1"
   inkscape:version="0.48.4 r9939"
   sodipodi:docname="New document 3">
  <defs
     id="defs3028" />
  <sodipodi:namedview
     id="base"
     pagecolor="#ffffff"
     bordercolor="#666666"
     borderopacity="1.0"
     inkscape:pageopacity="0.0"
     inkscape:pageshadow="2"
     inkscape:zoom="3.959798"
     inkscape:cx="87.95274"
     inkscape:cy="7.5853456"
     inkscape:document-units="px"
     inkscape:current-layer="layer1"
     showgrid="false"
     fit-margin-top="1"
     fit-margin-left="1"
     fit-margin-right="1"
     fit-margin-bottom="1"
     inkscape:window-width="1366"
     inkscape:window-height="716"
     inkscape:window-x="-8"
     inkscape:window-y="-8"
     inkscape:window-maximized="1" />
  <metadata
     id="metadata3031">
    <rdf:RDF>
      <cc:Work
         rdf:about="">
        <dc:format>image/svg+xml</dc:format>
        <dc:type
           rdf:resource="http://purl.org/dc/dcmitype/StillImage" />
        <dc:title></dc:title>
      </cc:Work>
    </rdf:RDF>
  </metadata>
  <g
     inkscape:label="Layer 1"
     inkscape:groupmode="layer"
     id="layer1"
     transform="translate(-214.16027,-434.09593)">
    <path
       inkscape:connector-curvature="0"
       d="m 267.17652,463.37606 c 0,0 -2.59125,1.23287 -7.0775,1.23287 -4.65125,0 -6.9075,-2.28862 -6.9075,-6.93112 l 12.82125,0 c 1.74375,0 2.8,-0.30613 2.8,-1.97025 l 0,-0.93113 c 0,-6.133 -3.23,-11.11925 -10.47125,-11.11925 -7.43875,0 -11.62363,5.63125 -11.62363,13.24325 0,8.8315 4.48988,12.728 12.50988,12.728 5.115,0 7.94875,-1.30712 7.94875,-1.30712 l 0,-4.94525 z m -13.88125,-10.0245 c 0.34,-3.00063 2.22,-4.94813 4.88125,-4.94813 2.7925,0 4.25375,1.84625 4.25375,4.94813 l -9.135,0 z m 20.33,8.12162 c 0,5.79588 1.75,8.15525 6.52625,8.15525 2.2925,0 4.2725,-0.69425 4.2725,-0.69425 l 0,-4.70125 c 0,0 -1.4025,0.3115 -2.1925,0.3115 -1.36125,0 -2.2125,-0.65425 -2.2125,-3.20937 l 0,-26.13913 -3.60125,0 c -1.7575,0 -2.7925,0.3075 -2.7925,2.0175 l 0,24.25975 z m -58.465,7.60013 c 0,0 4.57512,0.55512 9.414,0.55512 10.9815,0 18.55125,-6.42325 18.55125,-17.98575 0,-11.83425 -6.61525,-16.54675 -17.05225,-16.54675 -2.90038,0 -5.4565,0 -8.15175,0.1375 -1.69775,0.0975 -2.76125,0.305 -2.76125,2.01625 l 0,31.82363 z m 6.51362,-28.38363 c 1.05963,-0.10125 2.4185,-0.1325 3.92338,-0.1325 7.709,0 10.5825,4.3375 10.5825,11.5615 0,8.01763 -4.61575,11.9815 -10.9585,11.9815 -1.333,0 -2.66113,-0.10012 -3.54738,-0.23925 l 0,-23.17125 z m 152.59888,28.4495 c 1.56375,0.28425 3.3975,0.48925 5.195,0.48925 6.7775,0 11.08625,-3.352 11.08625,-8.22362 0,-8.05325 -10.21,-6.288 -10.21,-10.30763 0,-1.57375 1.2,-2.55875 3.7275,-2.55875 0.81375,0 1.595,0.0662 2.28,0.0662 1.4925,0 2.51,-0.335 2.51,-2.69 l 0,-1.81625 c -1.50875,-0.235 -3.085,-0.44125 -4.51625,-0.44125 -7.02625,0 -10.57125,3.64375 -10.57125,7.9855 0,8.42763 10.0475,5.935 10.0475,10.33688 0,1.62987 -1.6125,2.69775 -4.05,2.69775 -1.89875,0 -3.825,-0.33788 -5.3575,-0.74713 l -0.14125,5.209 z m -40.91625,-0.0659 6.445,0 0,-15.17725 c 0,-3.41387 0.91375,-4.71512 3.3675,-4.71512 l 0.38625,0 c 1.80875,0 2.79125,-0.3025 2.79125,-1.99875 l 0,-2.9825 -3.8925,0 c -7.22875,0 -9.0975,4.3925 -9.0975,9.73937 l 0,15.13425 z m -44.965,-7.60012 c 0,5.79587 1.67625,8.15525 7.23875,8.15525 1.69625,0 3.5325,-0.24413 5.18125,-0.69425 l 0,-4.93413 c -0.94,0.272 -2.30375,0.40525 -3.145,0.40525 -2.14,0 -2.9225,-0.93162 -2.9225,-4.13725 l 0,-11.08712 3.26875,0 c 1.75125,0 2.79875,-0.3025 2.79875,-1.99875 l 0,-2.9825 -6.0675,0 0,-9.00375 -3.585,0 c -1.78125,0 -2.7675,0.3075 -2.7675,2.0175 l 0,24.25975 z m 32.0875,2.457 c 0,0 -1.255,0.67875 -4.06125,0.67875 -4.2075,0 -5.88875,-2.69625 -5.88875,-7.3755 0,-6.17038 3.10125,-8.5625 6.78625,-8.5625 1.2275,0 2.1525,0.105 3.16375,0.34125 l 0,14.918 z m 6.35375,-18.8705 c 0,0 -3.03125,-1.4025 -8.92875,-1.4025 -8.8125,0 -14.02875,5.83375 -14.02875,14.25887 0,7.60838 4.4325,11.71238 12.04125,11.71238 6.99625,0 10.91625,-1.88475 10.91625,-1.88475 l 0,-22.684 z m 41.3775,18.31637 c 0,0 -2.6175,1.23287 -7.0875,1.23287 -4.64125,0 -6.94125,-2.28862 -6.94125,-6.93112 l 12.855,0 c 1.74625,0 2.76875,-0.30613 2.76875,-1.97025 l 0,-0.93113 c 0,-6.133 -3.1925,-11.11925 -10.475,-11.11925 -7.395,0 -11.6275,5.63125 -11.6275,13.24325 0,8.8315 4.53625,12.728 12.54125,12.728 5.1,0 7.96625,-1.30712 7.96625,-1.30712 l 0,-4.94525 z m -13.915,-10.0245 c 0.35125,-3.00063 2.2525,-4.94813 4.8675,-4.94813 2.83875,0 4.29875,1.84625 4.29875,4.94813 l -9.16625,0"
       style="fill:#96b7c5;fill-opacity:1;fill-rule:nonzero;stroke:none"
       id="path3041" />
  </g>
</svg>
